PathFileType	4	(X/Y/Z)	C:\Users\Basilio\Documents\Thesis Gigler\squatting_fais\c3dfiles\040\SLS_pre_front3\markers_experimental.trc
DataRate	CameraRate	NumFrames	NumMarkers	Units	OrigDataRate	OrigDataStartFrame	OrigNumFrames
200.000000	200.000000	4	62	mm	200.000000	976	1116
Frame#	Time	FHD			LBHD			RBHD			C7			T10			CLAV			LSHO			LUUPA			LMUPA			LDUPA			LLEP			LMEP			LRAD			LUL			LRFIN			RSHO			RUPA1			RMUPA			RDUPA			RLEP			RMEP			RRAD			RUL			RUFIN			LASI			RASI			USACR			LSACR			RSACR			LTHI1			LTHI2			LTHI3			LTHI4			LLFC			LMFC			LTIB1			LTIB2			LTIB3			LTIB4			LLMAL			LMMAL			LHEE			LMT1			LMT2			LMT5			RTHI			RTHI2			RTHI3			RTHI4			RLFC			RMFC			RTIB1			RTIB2			RTIB3			RTIB4			RLMAL			RMMAL			RHEE			RMT1			RMT2			RMT5			*61			
		X1	Y1	Z1	X2	Y2	Z2	X3	Y3	Z3	X4	Y4	Z4	X5	Y5	Z5	X6	Y6	Z6	X7	Y7	Z7	X8	Y8	Z8	X9	Y9	Z9	X10	Y10	Z10	X11	Y11	Z11	X12	Y12	Z12	X13	Y13	Z13	X14	Y14	Z14	X15	Y15	Z15	X16	Y16	Z16	X17	Y17	Z17	X18	Y18	Z18	X19	Y19	Z19	X20	Y20	Z20	X21	Y21	Z21	X22	Y22	Z22	X23	Y23	Z23	X24	Y24	Z24	X25	Y25	Z25	X26	Y26	Z26	X27	Y27	Z27	X28	Y28	Z28	X29	Y29	Z29	X30	Y30	Z30	X31	Y31	Z31	X32	Y32	Z32	X33	Y33	Z33	X34	Y34	Z34	X35	Y35	Z35	X36	Y36	Z36	X37	Y37	Z37	X38	Y38	Z38	X39	Y39	Z39	X40	Y40	Z40	X41	Y41	Z41	X42	Y42	Z42	X43	Y43	Z43	X44	Y44	Z44	X45	Y45	Z45	X46	Y46	Z46	X47	Y47	Z47	X48	Y48	Z48	X49	Y49	Z49	X50	Y50	Z50	X51	Y51	Z51	X52	Y52	Z52	X53	Y53	Z53	X54	Y54	Z54	X55	Y55	Z55	X56	Y56	Z56	X57	Y57	Z57	X58	Y58	Z58	X59	Y59	Z59	X60	Y60	Z60	X61	Y61	Z61	X62	Y62	Z62	

977	4.88	-177.5306549072266	1790.0341796875	-1143.103393554688	-297.1013488769532	1732.513549804688	-1190.578857421875	-353.5386352539063	1689.498291015625	-1061.779174804688	-356.0902099609376	1570.920166015625	-1104.743041992188	-396.2081604003907	1256.888305664063	-1081.70849609375	-230.6737976074219	1497.660278320313	-1110.245361328125	-294.1148681640626	1520.244384765625	-1284.3525390625	-324.1000976562501	1312.113403320313	-1367.27880859375	-281.7702331542969	1287.816772460938	-1360.259765625	-320.8256835937501	1244.01904296875	-1380.2861328125	-330.0828552246094	1182.80615234375	-1379.557495117188	-347.9852600097657	1169.236572265625	-1315.738647460938	-180.3528900146485	937.654968261719	-1408.082641601563	-250.6046905517579	926.9243164062502	-1436.122802734375	-163.1997833251953	862.6746826171877	-1462.950439453125	-263.9281005859376	1508.922241210938	-937.4763793945315	-284.7772521972657	1306.290893554688	-839.336853027344	-243.0581207275391	1286.3330078125	-852.1060791015627	-272.5328063964844	1239.71533203125	-828.173034667969	-256.7553405761719	1178.1591796875	-821.7614746093752	-294.3633422851563	1156.732299804688	-886.0322265625002	-72.51184844970705	957.691833496094	-876.5774536132815	-115.9569320678711	937.4573974609377	-816.894714355469	-19.78410339355469	886.987243652344	-845.130554199219	-230.3392181396485	1072.525390625	-1195.128051757813	-203.8012390136719	1094.5400390625	-968.754821777344	-402.126922607422	1114.904174804688	-1056.908325195313	-409.5267333984376	1082.514770507813	-1080.574462890625	-402.0018615722657	1084.943359375	-1024.64306640625	-338.4974365234376	810.0242309570315	-1216.495727539063	-293.2805175781251	737.2311401367189	-1225.17236328125	-249.7388610839844	745.4046630859376	-1238.151123046875	-307.5372314453126	683.0637207031251	-1206.699951171875	-277.2245178222657	551.8920898437501	-1196.919921875	-256.0754394531251	540.4600219726564	-1066.9873046875	-252.3424530029297	328.0402832031251	-1142.358154296875	-331.3765869140626	294.8516845703126	-1168.837890625	-290.0362854003907	282.7673950195313	-1159.535766601563	-284.1842956542969	209.5137176513672	-1118.822875976563	-357.0365295410157	126.2118759155274	-1111.4443359375	-314.7902221679688	144.4735260009766	-1037.483032226563	-413.9779052734376	97.7790451049805	-1051.911376953125	-198.8428497314454	60.04326248168947	-1052.709716796875	-205.3909759521485	50.29175949096681	-1099.129516601563	-261.8513793945313	34.15632247924805	-1139.6318359375	-179.155502319336	826.421081542969	-889.7257080078127	-134.0819244384766	778.9071044921877	-900.1875000000002	-105.4535903930664	786.3369140625002	-915.7611083984377	-147.0414276123047	697.3759155273439	-907.057800292969	-126.0132446289063	572.1224975585939	-917.044616699219	-144.0118865966797	559.1604003906251	-1046.113891601563	-118.7855224609375	380.4817199707032	-929.9758300781252	-205.0844879150391	325.0552368164063	-893.5557250976565	-163.8835906982422	310.0422668457032	-907.2500610351565	-160.6224517822266	259.0144042968751	-937.3975830078127	-235.177474975586	158.1408386230469	-901.8320922851565	-219.9748840332032	166.8748779296875	-991.1992797851565	-302.9372558593751	108.6225891113282	-950.6834716796877	-83.16948699951173	102.5182266235352	-971.342224121094	-84.5285110473633	106.5250854492188	-931.5324707031252	-122.4112243652344	85.82859039306642	-876.6243286132815	nan	nan	nan	
978	4.885	-176.0938720703125	1789.772338867188	-1142.645385742188	-295.7954711914063	1732.553833007813	-1190.233154296875	-352.0495605468751	1689.469482421875	-1061.502319335938	-354.9727478027344	1571.016357421875	-1104.757080078125	-395.6465454101564	1256.857543945313	-1081.639282226563	-229.7670593261719	1497.482788085938	-1110.053344726563	-293.5045166015626	1519.917236328125	-1284.192138671875	-326.9710693359376	1311.567993164063	-1366.202514648438	-285.2849426269532	1286.333251953125	-1359.015991210938	-325.5840148925782	1243.361938476563	-1378.454833984375	-336.5580444335938	1182.240234375	-1377.270751953125	-351.9974060058594	1168.71484375	-1312.208740234375	-194.161361694336	933.151306152344	-1407.588989257813	-265.2498474121094	924.095153808594	-1434.162841796875	-181.8965759277344	856.5754394531252	-1462.744262695313	-263.1429138183594	1508.90869140625	-936.9691162109377	-286.3468017578126	1306.1728515625	-838.9526977539065	-244.5592041015626	1285.488525390625	-851.9926757812502	-274.8108215332032	1239.203125	-827.9912109375002	-260.4211120605469	1177.617797851563	-821.758239746094	-297.8446044921876	1156.75390625	-886.2498168945315	-81.82308959960939	952.1921997070315	-872.9938964843752	-125.934928894043	933.4753417968752	-813.0759887695315	-31.27384757995606	880.4410400390627	-840.494323730469	-230.0605926513672	1072.548217773438	-1195.16552734375	-203.5648651123047	1094.274780273438	-968.6618652343752	-401.7714843750001	1114.917236328125	-1056.989624023438	-409.0958557128907	1082.543823242188	-1080.708129882813	-401.5659790039064	1085.113159179688	-1024.84765625	-337.8164367675782	809.692321777344	-1216.478149414063	-293.3070983886719	737.2991943359376	-1225.27294921875	-249.7261505126954	745.3624877929689	-1238.288818359375	-307.4192199707032	683.0720825195314	-1206.75390625	-277.2347106933594	551.8579101562501	-1197.020141601563	-255.9888153076172	540.4407348632814	-1067.123291015625	-252.4741516113282	327.9338378906251	-1142.421875	-331.3998413085938	294.8485717773438	-1168.955810546875	-288.7707214355469	283.1312255859376	-1159.8505859375	-284.3895568847657	209.3881530761719	-1118.952880859375	-357.0544738769532	126.0717163085938	-1111.59033203125	-315.1581115722657	144.6573486328125	-1037.49169921875	-413.7400512695314	97.45473480224612	-1052.085815429688	-200.1608886718751	60.37707901000978	-1052.84814453125	-205.3962860107422	50.29313278198244	-1099.123291015625	-262.0824584960938	34.28376388549805	-1139.707275390625	-179.5862884521485	825.9865722656252	-889.754089355469	-134.8831787109375	777.9824218750002	-899.363464355469	-106.2392196655274	787.0124511718752	-915.3836059570315	-147.5091247558594	696.9354248046876	-907.2180175781252	-127.2067642211914	571.8357543945314	-916.5288085937502	-146.1617736816407	559.1015625000001	-1045.700317382813	-121.6383361816407	379.8752746582032	-929.537048339844	-208.1911010742188	324.9187622070313	-893.1990966796877	-167.3436584472657	309.6729736328126	-906.5543212890627	-164.242660522461	258.4271240234376	-936.9627075195315	-239.7230529785157	158.7927551269532	-901.5418090820315	-224.5749816894532	167.2353973388672	-990.7053222656252	-308.0750732421876	109.2944946289063	-950.280944824219	-87.93865966796876	101.5112533569336	-970.5385742187502	-89.53094482421876	105.3520278930664	-930.7843017578127	-128.2010040283203	85.23169708251955	-875.6124267578127	nan	nan	nan	
979	4.89	-174.5880889892578	1789.609375	-1142.0908203125	-294.3671569824219	1732.62353515625	-1189.909790039063	-351.0648193359376	1689.67724609375	-1061.197998046875	-354.1614685058594	1571.114624023438	-1104.599243164063	-394.6335754394532	1257.130126953125	-1081.417114257813	-228.9196472167969	1497.08056640625	-1109.675048828125	-292.4427795410157	1519.609985351563	-1284.196899414063	-330.0636291503907	1311.046508789063	-1365.147583007813	-288.8115234375001	1284.685302734375	-1357.854858398438	-330.4628906250001	1242.813110351563	-1376.627807617188	-343.5235900878907	1181.8427734375	-1375.026123046875	-358.0024108886719	1169.353759765625	-1309.389892578125	-208.2144775390626	928.8649902343752	-1406.526977539063	-279.0179443359376	921.9898071289065	-1432.142578125	-200.3101043701172	851.2744750976565	-1461.94775390625	-262.5518798828126	1508.605712890625	-936.4417724609377	-287.7019958496094	1305.831665039063	-838.6754150390627	-246.7015686035157	1284.51123046875	-851.5750122070315	-277.2782592773438	1238.924560546875	-827.9219970703127	-264.1646423339844	1177.269287109375	-821.6402587890627	-301.6217041015626	1156.713623046875	-886.3669433593752	-90.74334716796876	947.1812133789065	-868.8767700195315	-135.4825744628907	930.0986328125002	-809.518249511719	-42.47797393798829	873.846862792969	-836.2034301757815	-229.6524810791016	1072.491455078125	-1195.151000976563	-203.0792388916016	1093.442504882813	-968.6020507812502	-401.3401184082032	1115.064697265625	-1057.119995117188	-408.691131591797	1082.548217773438	-1080.78955078125	-401.0191040039064	1085.058715820313	-1024.972412109375	-337.5921020507813	809.6719970703127	-1216.5947265625	-291.3469238281251	736.1026611328126	-1225.321411132813	-249.7044525146485	745.1354980468751	-1238.381591796875	-307.2161865234376	683.0305175781251	-1206.867431640625	-277.1028137207032	551.7464599609376	-1197.055786132813	-255.7976074218751	540.2323608398439	-1067.2216796875	-252.5429382324219	327.9688415527344	-1142.54443359375	-331.5303344726563	294.8157958984376	-1169.046752929688	-288.6633911132813	283.2395629882813	-1160.047973632813	-284.3598327636719	209.4188079833985	-1119.0478515625	-357.0848693847657	125.9720611572266	-1111.630004882813	-315.3225402832032	145.2991943359375	-1037.652587890625	-414.0086975097657	97.79862976074222	-1051.924194335938	-199.8280944824219	60.24407196044923	-1053.189453125	-205.3472595214844	50.29636764526369	-1099.162231445313	-261.9175415039063	33.92379760742188	-1139.406616210938	-180.081039428711	825.8191528320315	-890.1142578125002	-135.492172241211	777.6148071289065	-899.7545166015627	-106.4904098510742	786.5950317382815	-915.7795410156252	-148.6903076171875	696.2444458007814	-907.1081542968752	-128.640869140625	571.1812744140626	-916.4536132812502	-146.3366241455078	557.9335937500001	-1045.794921875	-124.5201492309571	379.2306213378907	-929.4068603515627	-211.9378509521485	324.6164550781251	-893.2479248046877	-170.5683898925782	309.4417419433594	-906.3393554687502	-168.3609924316407	258.3659057617188	-936.3965454101565	-244.6810150146485	159.341796875	-901.1176757812502	-229.1986694335938	167.2488250732422	-990.1831054687502	-312.8775024414063	110.3491897583008	-950.0320434570315	-93.20717620849611	100.0118637084961	-969.3240356445315	-94.39971160888673	104.8617935180664	-929.520935058594	-133.7317810058594	84.34706878662111	-874.6475219726565	nan	nan	nan	
980	4.895	-173.2887115478516	1789.239868164063	-1141.786010742188	-292.9774475097657	1732.670166015625	-1189.4189453125	-349.7714233398438	1689.687377929688	-1060.916381835938	-353.2624206542969	1571.196044921875	-1104.353515625	-393.9963684082032	1257.228759765625	-1081.2978515625	-227.7803192138672	1496.72998046875	-1109.479736328125	-291.1348876953126	1519.322875976563	-1284.372192382813	-333.0213928222657	1310.688598632813	-1364.167724609375	-292.6459045410157	1283.415649414063	-1356.644775390625	-335.6772155761719	1242.492553710938	-1375.022827148438	-350.2475585937501	1181.600708007813	-1372.712646484375	-364.1969909667969	1169.7548828125	-1306.726928710938	-222.1524047851563	925.1931762695315	-1405.152709960938	-294.0749816894532	921.1272583007815	-1429.693237304688	-218.1705780029297	847.033874511719	-1460.952270507813	-261.9125061035157	1508.45751953125	-936.059509277344	-289.2903747558594	1306.16845703125	-838.174011230469	-248.0281524658204	1283.74609375	-850.826843261719	-280.2039184570313	1238.418212890625	-827.8994140625002	-268.1506652832032	1177.290161132813	-821.7448730468752	-305.2500305175782	1156.910766601563	-886.9057617187502	-99.92922973632815	942.0167236328127	-864.9512939453127	-145.253890991211	927.0609130859377	-806.0435791015627	-54.27059173583986	867.0215454101565	-832.5300292968752	-229.1045227050782	1072.414184570313	-1195.156494140625	-203.1631927490235	1093.180053710938	-968.3765869140627	-400.8717651367189	1115.125	-1057.196533203125	-408.1961364746095	1082.547241210938	-1080.9814453125	-400.539764404297	1085.058715820313	-1025.123657226563	-337.4652099609376	809.6724243164065	-1216.807983398438	-291.2168273925782	736.0374755859376	-1225.531494140625	-250.1273956298829	745.3706665039064	-1238.500854492188	-307.1952819824219	683.0447998046876	-1206.987915039063	-277.1433105468751	551.7422485351564	-1197.1865234375	-255.7754821777344	540.1386718750001	-1067.333251953125	-252.7056274414063	327.9706726074219	-1142.688842773438	-331.6381530761719	294.7549438476563	-1169.189697265625	-288.7828369140626	283.1025695800782	-1160.126831054688	-284.4589843750001	209.3598785400391	-1119.168212890625	-357.2682495117188	125.892318725586	-1111.677856445313	-315.3915710449219	145.2596435546875	-1037.72900390625	-413.9868774414064	97.67890930175784	-1051.954956054688	-199.2820892333985	60.88903427124025	-1053.33154296875	-205.3458251953126	50.2949562072754	-1099.168090820313	-261.8069152832032	34.03649520874024	-1139.702392578125	-180.8163299560547	825.2851562500002	-889.789489746094	-136.656723022461	777.0037841796877	-898.717712402344	-107.8017959594727	785.7236938476565	-913.068542480469	-150.2298889160157	695.5287475585939	-906.7136230468752	-130.427001953125	570.6490478515626	-916.2879028320315	-148.3032531738282	557.3846435546876	-1045.553955078125	-127.3125305175782	378.4170837402344	-928.8127441406252	-214.9317626953126	325.1560363769532	-892.7073364257815	-173.9065246582032	309.1925964355469	-906.0713500976565	-172.0688018798828	258.1180419921876	-936.0948486328127	-248.9746246337891	159.4358367919922	-900.7171020507815	-233.3978424072266	167.287826538086	-989.851745605469	-318.0852966308594	111.6302566528321	-949.6157836914065	-98.179069519043	98.45038604736331	-968.5999145507815	-99.597038269043	103.0227966308594	-928.9932861328127	-138.7436676025391	83.8438186645508	-873.9041748046877	nan	nan	nan	
